<mxfile host="app.diagrams.net" modified="2024-06-17T18:54:26.594Z" agent="Mozilla/5.0 (X11; Linux x86_64) AppleWebKit/537.36 (KHTML, like Gecko) Chrome/126.0.0.0 Safari/537.36" version="24.5.4" etag="Oi_DV0zE9nP8qttdOHkv" type="github">
  <diagram name="PÃ¡gina-1" id="-jACtKHsKBFNbuwCve78">
    <mxGraphModel>
      <root>
        <mxCell id="0" />
        <mxCell id="1" parent="0" />
      </root>
    </mxGraphModel>
  </diagram>
</mxfile>
